<svg width="150" height="25" viewBox="0 0 150 25" fill="none" xmlns="http://www.w3.org/2000/svg">
<path d="M16.5927 0.607C17.4913 0.669694 18.3421 0.866735 19.1393 1.20409C19.9364 1.54145 20.623 1.96538 21.1962 2.47888C21.4411 2.70279 21.6859 2.95954 21.9337 3.24614C22.1785 3.53275 22.4054 3.88504 22.6084 4.30599C22.8114 4.72694 22.9816 5.21057 23.1159 5.76288C23.2473 6.31519 23.3249 6.96901 23.3458 7.72732C23.3667 8.56623 23.3517 9.49172 23.301 10.5038C23.2502 11.5159 23.1428 12.5548 22.9786 13.6176C22.8144 14.6804 22.6054 15.7254 22.3486 16.7464C22.0919 17.7704 21.7814 18.7198 21.4142 19.6005C21.047 20.4812 20.626 21.2425 20.1573 21.8873C19.6856 22.5322 19.1661 22.9979 18.5929 23.2845C18.1212 23.5084 17.6316 23.6935 17.1211 23.8368C16.6106 23.9801 16.0045 24.0518 15.3119 24.0518C15.0044 24.0518 14.6253 23.9742 14.1774 23.8219C13.7266 23.6697 13.2728 23.4905 12.8131 23.2845C12.3533 23.0815 11.9294 22.8755 11.5383 22.6695C11.1502 22.4665 10.8636 22.3023 10.6785 22.1799C10.3919 21.9948 10.1889 21.8336 10.0635 21.6903C9.94107 21.547 9.86345 21.4127 9.83359 21.2902C9.80374 21.1678 9.80374 21.0663 9.83359 20.9827C9.86345 20.9021 9.89927 20.8394 9.94107 20.7977C10.0217 20.735 10.1441 20.7111 10.3083 20.72C10.4725 20.732 10.6456 20.7618 10.8307 20.8126C11.0158 20.8633 11.195 20.9201 11.3681 20.9827C11.5413 21.0454 11.6905 21.0962 11.813 21.135C12.1802 21.2574 12.622 21.3768 13.1325 21.4873C13.643 21.6007 14.1715 21.6724 14.7118 21.7022C15.2522 21.7321 15.7747 21.7022 16.2762 21.6097C16.7778 21.5171 17.1927 21.3171 17.5182 21.0126C17.8048 20.7678 18.0794 20.3648 18.3481 19.8005C18.6138 19.2392 18.8646 18.5884 19.1005 17.851C19.3363 17.1136 19.5453 16.3165 19.7304 15.4567C19.9155 14.5969 20.0618 13.743 20.1752 12.8951C20.2887 12.0473 20.3603 11.2322 20.3902 10.456C20.42 9.6798 20.3961 8.99315 20.3126 8.39905C20.1901 7.53923 19.9752 6.8078 19.6707 6.20473C19.3662 5.60167 18.999 5.09115 18.569 4.6702C18.1391 4.25224 17.6764 3.92981 17.1778 3.70292C16.6763 3.47901 16.1837 3.32376 15.694 3.24315C15.1417 3.16255 14.5118 3.13568 13.7953 3.16554C13.0818 3.19539 12.3862 3.27301 11.7144 3.39542C11.0397 3.51782 10.4426 3.66709 9.92316 3.84025C9.40369 4.0134 9.0723 4.18358 8.929 4.34778C8.7857 4.53288 8.65732 4.8135 8.54686 5.19266C8.43341 5.57181 8.37968 5.86439 8.37968 6.0674L8.34982 12.4802C8.34982 13.5221 8.34385 14.576 8.33489 15.6418C8.32295 16.7046 8.314 17.6778 8.30504 18.5556C8.2931 19.4363 8.27817 20.1767 8.26026 20.7797C8.23936 21.3828 8.20951 21.7351 8.16771 21.8396C7.96171 22.371 7.70198 22.7949 7.39149 23.1144C7.081 23.4308 6.77051 23.6667 6.46003 23.8189C6.14954 23.9712 5.86592 24.0637 5.60917 24.0936C5.35242 24.1235 5.18225 24.1085 5.10164 24.0488C5.00014 23.9861 4.80608 23.8189 4.51948 23.5413C4.23287 23.2666 3.92239 22.9472 3.58503 22.5889C3.24767 22.2307 2.92524 21.8575 2.61774 21.4694C2.31024 21.0813 2.08633 20.7529 1.94303 20.4872C1.90123 20.3648 1.93109 20.2841 2.03558 20.2424C2.13708 20.2006 2.28039 20.1916 2.46548 20.2125C2.65058 20.2334 2.82374 20.2543 2.98794 20.2752C3.23275 20.2961 3.48352 20.311 3.74027 20.32C3.99702 20.3319 4.23586 20.2842 4.46275 20.1826C4.58516 20.1409 4.70756 20.0662 4.82997 19.9528C4.95237 19.8393 5.05985 19.6572 5.1524 19.4005C5.24495 19.1437 5.32555 18.7974 5.3972 18.3585C5.46885 17.9197 5.51364 17.3614 5.53453 16.6867C5.55543 15.9911 5.57036 15.3313 5.57932 14.7073C5.58827 14.0834 5.59424 13.5072 5.59424 12.9728C5.59424 11.3158 5.56737 9.97238 5.51662 8.93642C5.46587 7.90346 5.43004 7.21381 5.40915 6.86452C5.40915 6.3749 5.36436 5.99575 5.27181 5.73005C5.17927 5.46434 5.08373 5.13594 4.97924 4.74783C4.77324 4.81052 4.47768 4.89113 4.08957 4.99264C3.70146 5.09414 3.29544 5.18072 2.87748 5.25237C2.45653 5.32402 2.06543 5.36582 1.69524 5.37478C1.32802 5.38672 1.06232 5.32999 0.898118 5.2046C0.408503 4.8762 0.130855 4.57467 0.0681606 4.30001C0.00546598 4.02535 -0.0034904 3.85518 0.038306 3.79249C0.101001 3.71188 0.283114 3.61933 0.590616 3.51782C0.898118 3.41632 1.26533 3.30884 1.69524 3.1954C2.12514 3.08195 2.59386 2.97447 3.10736 2.87296C3.61787 2.77146 4.13137 2.65801 4.64188 2.5356C4.47768 2.04599 4.32841 1.63101 4.19705 1.29365C4.0627 0.956295 4.03882 0.735373 4.11943 0.633868C4.18212 0.532362 4.43589 0.50549 4.88669 0.556243C5.33749 0.606996 5.82711 0.699549 6.35852 0.830909C6.88993 0.965255 7.38253 1.13244 7.83035 1.33844C8.28116 1.54444 8.53492 1.74745 8.59761 1.95344C8.90512 1.87284 9.31412 1.73849 9.82464 1.55339C10.3352 1.3683 10.9352 1.19514 11.6189 1.03094C12.3026 0.866739 13.0668 0.738364 13.9058 0.648801C14.7447 0.556251 15.6433 0.541317 16.6046 0.604011L16.5927 0.607Z" fill="#DADAC2"/>
<path d="M40.3121 15.1491C40.6405 15.6208 40.9271 16.0238 41.1719 16.3612C41.4167 16.6986 41.6615 17.0061 41.9093 17.2807C42.1571 17.5554 42.4168 17.833 42.6915 18.1077C42.9691 18.3824 43.2796 18.6869 43.6259 19.0123C44.6081 19.9527 45.5426 20.6812 46.4323 21.1917C47.3219 21.7022 48.1041 22.0963 48.7788 22.3739C49.4535 22.6516 49.9969 22.8486 50.4059 22.971C50.8149 23.0934 51.0209 23.2278 51.0209 23.3711C51.0209 23.4338 50.8866 23.4935 50.6208 23.5562C50.3551 23.6189 50.0058 23.6786 49.5789 23.7413C49.149 23.8039 48.6743 23.8547 48.1519 23.8935C47.6294 23.9353 47.1189 23.9741 46.6173 24.0159C46.1158 24.0577 45.6501 24.0816 45.2202 24.0935C44.7903 24.1025 44.4618 24.0995 44.2379 24.0786C43.9304 24.0577 43.5005 23.7413 42.9482 23.1263C42.3959 22.5112 41.8018 21.7768 41.1689 20.917C40.536 20.0572 39.912 19.1466 39.297 18.1853C38.682 17.224 38.1625 16.3761 37.7326 15.6387C37.5684 15.6596 37.3953 15.6746 37.2102 15.6835C37.0251 15.6954 36.8519 15.6984 36.6877 15.6984C36.1354 15.6984 35.7563 15.5462 35.5532 15.2387C35.3293 14.9103 35.0935 14.6087 34.8487 14.3341C34.6039 14.0564 34.3829 13.8116 34.1889 13.5967C33.9948 13.3817 33.8306 13.2086 33.6993 13.0742C33.5649 12.9429 33.5112 12.8443 33.5291 12.7816C33.5709 12.6801 33.8396 12.704 34.3411 12.8593C34.8427 13.0115 35.5234 13.1011 36.3802 13.119C37.2191 13.1399 37.9297 13.0533 38.5118 12.8593C39.094 12.6652 39.5806 12.3846 39.9687 12.0144C40.3568 11.6472 40.6524 11.2023 40.8584 10.6799C41.0614 10.1574 41.2167 9.56034 41.3182 8.88562C41.3988 8.37511 41.4495 7.83175 41.4704 7.25855C41.4913 6.68534 41.5003 6.25543 41.5003 5.96883C41.5003 5.31501 41.3988 4.84928 41.1928 4.57163C40.9868 4.29697 40.8136 4.07605 40.6703 3.91185C40.527 3.74765 40.2464 3.58046 39.8254 3.40432C39.4045 3.23116 38.8492 3.1834 38.1536 3.26699C37.0699 3.3685 36.0458 3.48791 35.0845 3.61927C34.1232 3.75362 33.4366 3.92081 33.0275 4.1268C32.6185 4.35071 32.3469 4.62239 32.2155 4.93885C32.0812 5.25531 32.0155 5.67924 32.0155 6.21364C32.0155 6.66444 32.0423 7.17496 32.0931 7.74817C32.1439 8.32137 32.1797 8.99609 32.2006 9.7723C32.2006 10.1395 32.2065 10.3873 32.2155 10.5097C32.2245 10.6321 32.2304 10.7515 32.2304 10.862V12.3487C32.2722 13.6803 32.3021 14.8386 32.323 15.8328C32.3439 16.824 32.3528 17.6778 32.3528 18.3943C32.3528 19.5407 32.3409 20.3587 32.323 20.8483C32.3021 21.338 32.2812 21.6365 32.2603 21.738C32.2394 21.8813 32.2155 22.0246 32.1827 22.1679C32.1528 22.3112 32.0961 22.4426 32.0125 22.568C31.7886 22.9352 31.5408 23.2278 31.2751 23.4427C31.0094 23.6577 30.7526 23.8099 30.5078 23.9025C30.263 23.995 30.0361 24.0368 29.8331 24.0249C29.6271 24.0159 29.4838 23.989 29.4032 23.9473C29.3017 23.9055 29.1076 23.7472 28.821 23.4726C28.5344 23.1979 28.2239 22.8755 27.8866 22.5053C27.5492 22.1381 27.2268 21.7649 26.9193 21.3857C26.6118 21.0066 26.3968 20.6841 26.2744 20.4184C26.1938 20.296 26.2237 20.2154 26.367 20.1736C26.4685 20.1318 26.6058 20.1169 26.782 20.1289C26.9551 20.1408 27.1253 20.1557 27.2895 20.1736C27.5343 20.2154 27.7851 20.2363 28.0418 20.2363C28.2986 20.2363 28.5494 20.1945 28.7942 20.1139C28.9793 20.0333 29.1226 19.9199 29.2241 19.7766C29.2659 19.6333 29.3017 19.3735 29.3315 18.9944C29.3614 18.6152 29.3823 18.1644 29.3942 17.645C29.4032 17.1225 29.4151 16.5523 29.4241 15.9253C29.4331 15.3014 29.439 14.6625 29.439 14.0087V9.9574C29.439 9.30359 29.4092 8.602 29.3465 7.85564C29.2838 7.10927 29.1763 6.38679 29.024 5.69118C28.8718 4.99557 28.6718 4.36265 28.427 3.78945C28.1821 3.21624 27.8746 2.77737 27.5074 2.46987C27.3223 2.30567 27.2059 2.17431 27.1552 2.06982C27.1044 1.96831 27.0895 1.86681 27.1104 1.76232C27.1313 1.68171 27.191 1.56826 27.2955 1.42496C27.397 1.28166 27.6418 1.2518 28.0329 1.33241C28.1762 1.37421 28.427 1.45183 28.7852 1.5623C29.1435 1.67574 29.5465 1.78322 29.9973 1.88472C30.4481 1.98623 30.9228 2.0728 31.4244 2.14446C31.9259 2.21611 32.3916 2.23103 32.8216 2.18924C33.2306 2.14744 33.6754 2.10266 34.1561 2.05191C34.6367 2.00115 35.1024 1.9504 35.5532 1.89965C36.004 1.84889 36.3981 1.80411 36.7355 1.76232C37.0728 1.72052 37.3027 1.68171 37.4251 1.63991C37.9565 1.49661 38.4312 1.33838 38.8522 1.16523C39.2701 0.992069 39.6254 0.842799 39.912 0.720396C40.2792 0.556195 40.6494 0.475586 41.0166 0.475586C41.3629 0.475586 41.7391 0.553205 42.1362 0.705463C42.5332 0.857721 42.9811 1.12045 43.4707 1.48766C43.8379 1.77426 44.1364 2.01907 44.3603 2.22507C44.5843 2.43107 44.7485 2.61317 44.85 2.77737C44.9515 2.94157 45.0082 3.09383 45.0201 3.23713C45.0291 3.38044 45.0142 3.52374 44.9753 3.66704C44.8111 4.17755 44.7007 4.76569 44.638 5.43145C44.5753 6.0972 44.5216 6.79281 44.4678 7.51828C44.4171 8.24375 44.3454 8.98115 44.2529 9.72752C44.1603 10.4739 44.0081 11.1695 43.7931 11.8144C43.5782 12.4592 43.2826 13.0324 42.9034 13.534C42.5243 14.0355 42.0287 14.4087 41.4167 14.6535C41.2316 14.7341 41.0495 14.8237 40.8644 14.9133C40.6793 15.0058 40.4972 15.0834 40.3121 15.1431V15.1491Z" fill="#DADAC2"/>
<path d="M76.2749 22.8215C76.663 22.9648 76.9406 23.0961 77.1048 23.2215C77.269 23.3439 77.3646 23.4454 77.3974 23.529C77.4273 23.6096 77.4064 23.6783 77.3347 23.7291C77.2631 23.7798 77.1854 23.8067 77.1048 23.8067C76.7376 23.8485 76.3435 23.8783 75.9226 23.8992C75.5016 23.9201 75.0687 23.9291 74.6179 23.9291C74.0865 23.9291 73.5491 23.9142 73.0058 23.8843C72.4624 23.8545 71.9639 23.8037 71.5011 23.732C71.0414 23.6604 70.6413 23.5738 70.304 23.4723C69.9666 23.3708 69.7248 23.2484 69.5815 23.1051C69.3576 22.8603 69.1157 22.6035 68.859 22.3378C68.6022 22.0721 68.3306 21.7139 68.0469 21.2631C67.7603 20.8123 67.4439 20.251 67.0946 19.5763C66.7453 18.9016 66.3572 18.0328 65.9273 16.967C65.5183 16.967 65.0615 16.9789 64.5629 16.9969C64.0614 17.0178 63.5449 17.0416 63.0135 17.0745C62.4821 17.1043 61.9536 17.1461 61.4342 17.1969C60.9117 17.2476 60.437 17.3163 60.0071 17.3969C59.2906 18.5433 58.4278 19.6569 57.4157 20.7406C56.4037 21.8243 55.0483 22.8573 53.3495 23.8395C53.1047 23.9828 52.8689 24.0485 52.645 24.0395C52.4211 24.0306 52.2569 23.953 52.1553 23.8097C52.0538 23.6664 52.027 23.4932 52.0777 23.2872C52.1285 23.0842 52.2658 22.8872 52.4927 22.705C53.7197 21.7228 54.7079 20.8391 55.4543 20.051C56.2006 19.2628 56.7977 18.4388 57.2485 17.582C56.9201 17.6238 56.7321 17.6626 56.6813 17.7044C56.6306 17.7462 56.5022 17.7761 56.2992 17.797C55.7678 17.8985 55.3587 17.9671 55.0721 17.997C54.7855 18.0268 54.5288 18.0239 54.3049 17.9821C54.081 17.9403 53.8451 17.8805 53.6003 17.797C53.3555 17.7163 53.1346 17.6178 52.9405 17.5044C52.7465 17.3909 52.5972 17.2805 52.4957 17.167C52.3942 17.0536 52.3733 16.9461 52.433 16.8446C52.4957 16.764 52.5853 16.6565 52.7077 16.5222C52.8301 16.3908 53.0092 16.2624 53.245 16.14C53.4809 16.0176 53.7824 15.9102 54.1496 15.8176C54.5168 15.7251 54.9676 15.6803 55.4991 15.6803C55.7648 15.6803 56.0723 15.6743 56.4186 15.6653C56.7649 15.6564 57.2874 15.5997 57.983 15.4952C58.801 13.6143 59.4608 11.9246 59.9623 10.4318C60.4639 8.93911 60.843 7.65536 61.0968 6.5806C61.3535 5.50583 61.5148 4.65199 61.5864 4.01907C61.6581 3.38615 61.6819 2.97715 61.664 2.79205C61.6431 2.69055 61.5984 2.56814 61.5267 2.42484C61.4551 2.28154 61.3894 2.13227 61.3267 1.98001C61.264 1.82775 61.2132 1.6725 61.1744 1.52024C61.1326 1.36799 61.1237 1.22767 61.1446 1.10527C61.1864 0.961969 61.3804 0.84852 61.7267 0.767913C62.073 0.687305 62.482 0.645508 62.9538 0.645508C63.3628 0.645508 63.7867 0.687305 64.2285 0.767913C64.6674 0.84852 65.0734 0.991823 65.4406 1.19782C65.8287 1.42173 66.0736 1.62175 66.178 1.79491C66.2796 1.96807 66.3094 2.1233 66.2706 2.25466C66.2288 2.38901 66.1571 2.49947 66.0556 2.59202C65.9541 2.68457 65.8914 2.77115 65.8705 2.85176C65.8705 2.91445 65.8258 3.08761 65.7332 3.37421C65.6407 3.66082 65.5242 4.00713 65.3809 4.41614C65.2376 4.82515 65.0943 5.26102 64.951 5.72079C64.8077 6.18055 64.6764 6.60448 64.551 6.99557C64.7152 7.48519 64.9242 8.06437 65.1809 8.73012C65.4377 9.39588 65.7123 10.0766 66.0109 10.7692C66.3064 11.4648 66.6139 12.1395 66.9304 12.7933C67.2468 13.4472 67.5394 14.0114 67.8051 14.4801C68.1335 14.4383 68.4888 14.3935 68.8799 14.3428C69.268 14.292 69.6621 14.2353 70.0621 14.1726C70.4622 14.1099 70.8354 14.0502 71.1817 13.9875C71.528 13.9248 71.8265 13.8562 72.0713 13.7726C72.3579 13.6711 72.6386 13.6442 72.9162 13.6949C73.1909 13.7457 73.4566 13.8323 73.7133 13.9547C73.9701 14.0771 74.203 14.2204 74.4179 14.3846C74.6329 14.5488 74.8209 14.701 74.9851 14.8443C75.1493 14.9876 75.2598 15.1668 75.3225 15.3817C75.3852 15.5967 75.3643 15.7967 75.2598 15.9788C75.1583 16.1639 74.9523 16.3162 74.6448 16.4386C74.3373 16.561 73.8984 16.6117 73.3252 16.5908C72.9968 16.5699 72.6863 16.561 72.3908 16.561H71.5459C70.8921 16.561 70.3278 16.5729 69.8591 16.5908C69.3874 16.6117 68.9993 16.6416 68.6918 16.6834C68.8351 16.9282 68.9635 17.1402 69.0739 17.3133C69.1874 17.4865 69.2978 17.6507 69.4113 17.8029C69.5247 17.9552 69.6412 18.1045 69.7636 18.2478C69.886 18.3911 70.0293 18.5553 70.1935 18.7374C70.6831 19.3315 71.1697 19.833 71.6504 20.242C72.131 20.6511 72.6177 21.0093 73.1073 21.3168C73.5969 21.6243 74.1044 21.896 74.6269 22.1289C75.1493 22.3647 75.6957 22.5946 76.2689 22.8185L76.2749 22.8215ZM60.7803 15.2742C61.046 15.2742 61.3685 15.2593 61.7476 15.2295C62.1268 15.1996 62.5209 15.1638 62.9299 15.122C63.3389 15.0802 63.7598 15.0354 64.1867 14.9847C64.6167 14.9339 65.0167 14.8772 65.3839 14.8145C65.2824 14.5697 65.1481 14.1965 64.9839 13.6949C64.8197 13.1934 64.6525 12.662 64.4763 12.1007C64.3032 11.5394 64.133 10.9961 63.9688 10.4736C63.8046 9.95117 63.6732 9.53919 63.5688 9.23169C63.5061 9.41679 63.3687 9.73921 63.1538 10.199C62.9388 10.6587 62.694 11.1812 62.4164 11.7633C62.1387 12.3455 61.8581 12.9486 61.5715 13.5725C61.2849 14.1965 61.0192 14.7637 60.7744 15.2742H60.7803Z" fill="#DADAC2"/>
<path d="M99.0119 10.7004C99.2985 10.7422 99.609 10.8378 99.9464 10.993C100.284 11.1453 100.591 11.3154 100.866 11.5005C101.141 11.6856 101.367 11.8648 101.541 12.0379C101.714 12.2111 101.791 12.3514 101.77 12.4529C101.75 12.4947 101.642 12.5544 101.448 12.638C101.254 12.7186 100.997 12.8022 100.681 12.8828C100.364 12.9634 100.006 13.053 99.606 13.1425C99.206 13.2351 98.782 13.3216 98.3312 13.4023C98.373 14.1994 98.4327 14.9457 98.5163 15.6413C98.5581 16.0086 98.594 16.3877 98.6238 16.7758C98.6537 17.1639 98.6686 17.6356 98.6686 18.188C98.6686 18.7403 98.6477 19.2985 98.6059 19.8598C98.5641 20.4241 98.4984 20.9555 98.4059 21.454C98.3133 21.9556 98.1849 22.4064 98.0237 22.8035C97.8595 23.2035 97.6565 23.514 97.4087 23.7379C97.2445 23.9021 96.9579 23.9827 96.5489 23.9827C96.2205 23.9827 95.8832 23.92 95.5368 23.7976C95.1875 23.6752 94.9218 23.4304 94.7397 23.0602C94.6382 22.8363 94.3964 22.6661 94.0172 22.5527C93.6381 22.4392 93.2768 22.3646 92.9275 22.3228C92.7215 22.3019 92.5126 22.287 92.2976 22.278C92.0827 22.2691 91.7901 22.278 91.4229 22.3079C91.0557 22.3377 90.575 22.3945 89.9809 22.4781C89.3868 22.5587 88.6195 22.6721 87.6791 22.8154C87.4731 22.8572 87.2044 22.9139 86.8671 22.9856C86.5297 23.0572 86.1655 23.1349 85.7774 23.2155C85.3893 23.2961 84.9892 23.3737 84.5802 23.4453C84.1712 23.517 83.804 23.5737 83.4756 23.6155C83.3323 23.8603 83.1472 24.0305 82.9233 24.123C82.6994 24.2156 82.4725 24.2604 82.2486 24.2604C82.0635 24.2604 81.8963 24.2395 81.741 24.1977C81.5888 24.1559 81.4694 24.1171 81.3888 24.0753C81.2246 23.9738 81.0514 23.8185 80.8663 23.6155C80.6812 23.4125 80.5916 23.0542 80.5916 22.5407C80.5916 22.1526 80.6633 21.7018 80.8066 21.1913C80.9081 20.8032 80.9947 20.2867 81.0663 19.6419C81.138 18.997 81.1947 18.3014 81.2365 17.555C81.2783 16.8087 81.3022 16.0324 81.3141 15.2234C81.3231 14.4143 81.329 13.6441 81.329 12.9067V11.2796C81.329 10.79 81.3171 10.369 81.2992 10.0227C81.2783 9.36891 81.2544 8.67329 81.2216 7.93588C81.1887 7.19847 81.129 6.49391 81.0365 5.81919C80.9439 5.14448 80.8006 4.52948 80.6066 3.97717C80.4125 3.42486 80.1319 2.99495 79.7617 2.68745C79.5766 2.52325 79.4601 2.39189 79.4094 2.2874C79.3586 2.1859 79.3437 2.08439 79.3646 1.9799C79.3855 1.89929 79.4452 1.78584 79.5497 1.64254C79.6512 1.49924 79.896 1.46939 80.2871 1.54999C80.4304 1.59179 80.6693 1.6515 81.0096 1.73509C81.347 1.8157 81.7321 1.89929 82.159 1.9799C82.5889 2.06051 83.0427 2.13216 83.5234 2.19485C84.004 2.25755 84.4697 2.27546 84.9206 2.25755C85.3296 2.23665 85.7953 2.20679 86.3177 2.165C86.8402 2.1232 87.3597 2.07842 87.8821 2.02767C88.4046 1.97692 88.8882 1.92616 89.339 1.87541C89.7898 1.82465 90.1481 1.77988 90.4138 1.73808C90.7004 1.69628 91.0228 1.6306 91.3811 1.53805C91.7393 1.4455 92.1036 1.34997 92.4708 1.24548C92.7156 1.16487 92.9813 1.06037 93.2679 0.937969C93.5545 0.815566 93.8411 0.702126 94.1277 0.60062C94.4143 0.499115 94.68 0.421487 94.9248 0.370734C95.1696 0.319982 95.3637 0.314014 95.507 0.355811C95.6085 0.397607 95.8085 0.490151 96.1041 0.630468C96.3996 0.77377 96.734 0.946926 97.1012 1.15292C97.4684 1.35892 97.8536 1.58283 98.2506 1.82764C98.6507 2.07245 99.0059 2.31427 99.3254 2.55012C99.6418 2.78597 99.8926 3.0069 100.078 3.20991C100.263 3.4159 100.334 3.56816 100.293 3.66967C100.128 3.99807 99.7911 4.26676 99.2806 4.48172C98.7701 4.69667 98.2775 4.91759 97.8088 5.1415C97.564 5.2639 97.3012 5.44303 97.0266 5.67888C96.7489 5.91473 96.4832 6.13566 96.2295 6.33867C95.9727 6.54467 95.7488 6.70289 95.5548 6.81336C95.3607 6.9268 95.2413 6.92083 95.2025 6.79842C95.1398 6.65512 95.1368 6.38942 95.1875 6.00131C95.2383 5.6132 95.2652 5.21315 95.2652 4.80414C95.2652 4.47574 95.2234 4.18913 95.1428 3.94433C95.0622 3.69952 94.9069 3.55622 94.683 3.51442C94.4382 3.47262 94.1158 3.4577 93.7157 3.46964C93.3157 3.48158 92.8768 3.49949 92.3961 3.53233C91.9155 3.56219 91.4079 3.59802 90.8765 3.63981C90.3451 3.68161 89.8346 3.71146 89.342 3.73236C88.6046 3.77416 87.9657 3.84581 87.4253 3.94732C86.882 4.04882 86.4282 4.16824 86.061 4.2996C85.6938 4.43394 85.4072 4.55933 85.2012 4.68174C84.9952 4.80414 84.8519 4.89669 84.7713 4.9564C84.4847 5.22211 84.2906 5.50274 84.1891 5.80128C84.0876 6.09684 84.0369 6.49092 84.0369 6.98352C84.0369 7.29102 84.0458 7.59853 84.0667 7.90305C84.0876 8.21055 84.1085 8.6912 84.1294 9.34502C84.1921 11.4916 84.2249 13.2679 84.2369 14.6681C84.2458 16.0683 84.2518 17.2296 84.2518 18.1521V19.194C84.2518 19.4598 84.2399 19.6896 84.2219 19.8837C84.2011 20.0777 84.1802 20.2569 84.1593 20.4211C84.1384 20.5853 84.1085 20.7883 84.0667 21.0361C84.2906 21.1167 84.5981 21.1346 84.9862 21.0809C85.3743 21.0301 85.8759 20.9107 86.4909 20.7286C87.2283 20.5047 87.8672 20.3106 88.4076 20.1464C88.9479 19.9822 89.4256 19.8508 89.8346 19.7464C90.2436 19.6448 90.6019 19.5732 90.9094 19.5314C91.2169 19.4896 91.5035 19.4687 91.7692 19.4687C92.1155 19.4687 92.4439 19.5314 92.7514 19.6538C92.9962 19.7553 93.1903 19.8419 93.3336 19.9135C93.4769 19.9852 93.5933 20.0479 93.6859 20.0986C93.7784 20.1494 93.859 20.1972 93.9307 20.236C94.0023 20.2778 94.0889 20.3285 94.1904 20.3882C94.2919 20.43 94.4113 20.4599 94.5427 20.4808C94.674 20.5017 94.8024 20.4808 94.9248 20.4181C95.1487 20.3166 95.2682 19.7852 95.2771 18.8238C95.2861 17.8625 95.3338 16.6057 95.4144 15.0502L95.507 13.6381C94.8114 13.659 94.2441 13.6799 93.8053 13.7008C93.3664 13.7217 92.9305 13.7516 92.5006 13.7934C92.2558 13.8143 92.0259 13.8381 91.811 13.871C91.596 13.9008 91.3035 13.9158 90.9362 13.9158H90.5213C90.369 13.9158 90.1988 13.9068 90.0137 13.8859C89.2554 13.8441 88.7031 13.7545 88.3568 13.6112C88.0075 13.4679 87.8344 13.3157 87.8344 13.1515C87.8344 12.9873 87.9986 12.7693 88.324 12.4917C88.6524 12.217 89.1121 12.026 89.7062 11.9245C89.8913 11.8827 90.1212 11.8618 90.3959 11.8618C90.6705 11.8618 90.9333 11.8737 91.1781 11.8916C91.4647 11.9125 91.7722 11.9334 92.0976 11.9543H93.032C93.1843 11.9543 93.3485 11.9394 93.5217 11.9095C93.6948 11.8797 93.9157 11.8319 94.1814 11.7722C94.692 11.6707 95.1726 11.5513 95.6234 11.4199C96.0742 11.2886 96.5041 11.1602 96.9131 11.0378C97.3221 10.9154 97.7013 10.8168 98.0476 10.7452C98.3939 10.6735 98.7134 10.6586 99 10.7004H99.0119Z" fill="#DADAC2"/>
<path d="M122.791 1.37388C123.18 1.66048 123.481 1.90529 123.696 2.11129C123.911 2.31728 124.063 2.4994 124.156 2.6636C124.248 2.8278 124.284 2.98005 124.263 3.12335C124.242 3.26665 124.201 3.40996 124.141 3.55326C124.078 3.69656 123.992 3.9354 123.881 4.27574C123.768 4.6131 123.657 4.99823 123.544 5.42515C123.43 5.85505 123.335 6.32078 123.251 6.82234C123.171 7.3239 123.129 7.79858 123.129 8.24939C123.129 8.8017 123.114 9.43461 123.084 10.1511C123.054 10.8676 123.039 11.614 123.039 12.3902C123.039 13.4739 123.102 14.4771 123.224 15.3966C123.266 15.7638 123.302 16.1997 123.332 16.7012C123.362 17.2028 123.377 17.7282 123.377 18.2805C123.377 18.8328 123.356 19.3911 123.314 19.9524C123.272 20.5166 123.206 21.048 123.114 21.5466C123.021 22.0482 122.893 22.499 122.732 22.896C122.568 23.2961 122.365 23.6066 122.117 23.8305C121.953 23.9947 121.666 24.0753 121.257 24.0753C120.929 24.0753 120.591 23.9977 120.245 23.8454C119.896 23.6932 119.63 23.4304 119.448 23.0632C119.346 22.8393 119.104 22.6691 118.725 22.5557C118.346 22.4422 117.985 22.3676 117.636 22.3258C117.43 22.3049 117.221 22.296 117.006 22.296C116.791 22.296 116.498 22.3169 116.131 22.3587C115.764 22.4005 115.283 22.4661 114.689 22.5587C114.095 22.6512 113.328 22.7677 112.387 22.911C112.181 22.9528 111.912 23.0095 111.575 23.0811C111.238 23.1528 110.873 23.2304 110.485 23.311C110.097 23.3916 109.697 23.4693 109.288 23.5409C108.879 23.6126 108.512 23.6693 108.184 23.7111C108.04 23.9559 107.855 24.126 107.631 24.2186C107.407 24.3111 107.18 24.3559 106.957 24.3559C106.771 24.3559 106.604 24.335 106.449 24.2932C106.297 24.2514 106.177 24.2126 106.097 24.1708C105.933 24.0693 105.759 23.9141 105.574 23.7111C105.389 23.5081 105.3 23.1498 105.3 22.6363C105.3 22.2482 105.371 21.7974 105.515 21.2869C105.616 20.8988 105.703 20.3823 105.774 19.7374C105.846 19.0926 105.903 18.397 105.944 17.6506C105.986 16.9042 106.01 16.128 106.022 15.3189C106.031 14.5099 106.037 13.7396 106.037 13.0022V11.3752C106.037 10.8855 106.025 10.4646 106.007 10.1183C105.986 9.46446 105.962 8.76289 105.93 8.01652C105.9 7.27016 105.837 6.54768 105.744 5.85207C105.652 5.15645 105.509 4.52354 105.315 3.95033C105.121 3.37712 104.84 2.93826 104.47 2.63075C104.285 2.46655 104.168 2.33519 104.117 2.2307C104.067 2.1292 104.052 2.02769 104.073 1.9232C104.094 1.84259 104.153 1.72915 104.258 1.58584C104.359 1.44254 104.604 1.41269 104.995 1.49329C105.138 1.53509 105.377 1.60078 105.718 1.69332C106.055 1.78587 106.44 1.87842 106.867 1.96798C107.297 2.06053 107.751 2.13815 108.231 2.19786C108.712 2.26055 109.178 2.27847 109.629 2.26056C110.038 2.23966 110.503 2.20981 111.026 2.16801C111.548 2.12621 112.068 2.07546 112.59 2.01575C113.113 1.95604 113.596 1.89335 114.047 1.83065C114.498 1.76796 114.856 1.7172 115.122 1.67839C115.408 1.6366 115.737 1.57092 116.104 1.47837C116.471 1.38582 116.841 1.28432 117.209 1.17087C117.576 1.05742 117.931 0.949941 118.268 0.848435C118.606 0.746929 118.886 0.663334 119.113 0.603625C119.358 0.460323 119.696 0.388672 120.125 0.388672C120.493 0.388672 120.908 0.460323 121.367 0.603625C121.827 0.746927 122.302 1.00368 122.794 1.37089L122.791 1.37388ZM120.122 14.8144C120.143 14.3636 120.152 13.9188 120.152 13.4799V11.0109C120.152 10.6228 120.14 10.2347 120.122 9.84362C120.122 9.67942 120.116 9.51522 120.108 9.354C120.096 9.1898 120.093 9.02561 120.093 8.86439C120.093 8.47628 120.099 8.1031 120.108 7.74484C120.116 7.38659 120.122 7.04326 120.122 6.71785C120.122 6.12374 120.093 5.61322 120.03 5.18332C119.967 4.75341 119.824 4.45786 119.6 4.29366C119.209 4.00705 118.677 3.79806 118 3.66372C117.322 3.53236 116.594 3.4637 115.814 3.4637C115.199 3.4637 114.569 3.49952 113.922 3.57117C113.277 3.64282 112.659 3.73538 112.077 3.84584C111.491 3.95928 110.963 4.09064 110.491 4.24589C110.02 4.40113 109.649 4.56832 109.384 4.75342C109.034 4.97733 108.811 5.20422 108.706 5.42813C108.605 5.65204 108.551 6.01029 108.551 6.50289C108.551 6.81039 108.56 7.18358 108.581 7.62244C108.602 8.0613 108.622 8.61063 108.643 9.26444C108.706 11.411 108.739 13.2172 108.751 14.6801C108.76 16.1429 108.766 17.3341 108.766 18.2537V19.3135C108.766 19.5882 108.754 19.83 108.736 20.036C108.715 20.242 108.694 20.4301 108.673 20.6032C108.652 20.7764 108.622 20.9853 108.581 21.2331C108.805 21.3137 109.115 21.3197 109.503 21.2481C109.891 21.1764 110.396 21.048 111.011 20.8659C111.748 20.642 112.402 20.436 112.963 20.2509C113.525 20.0658 114.026 19.9136 114.456 19.7912C114.886 19.6688 115.262 19.5702 115.579 19.4986C115.895 19.4269 116.188 19.3911 116.456 19.3911C116.806 19.3911 117.134 19.4538 117.441 19.5762C117.686 19.6777 117.883 19.7762 118.027 19.8688C118.17 19.9613 118.289 20.0479 118.382 20.1285C118.474 20.2091 118.555 20.2808 118.627 20.3435C118.698 20.4062 118.785 20.4659 118.889 20.5286C118.991 20.5704 119.11 20.6002 119.245 20.6211C119.379 20.642 119.507 20.6211 119.63 20.5584C119.752 20.4957 119.839 20.3136 119.893 20.0061C119.943 19.6986 119.979 19.2896 120 18.7791C120.021 18.2686 120.036 17.6745 120.045 16.9998C120.057 16.325 120.081 15.5996 120.122 14.8204V14.8144Z" fill="#DADAC2"/>
<path d="M148.476 19.6001C148.987 20.0897 149.243 20.5017 149.243 20.8271C149.243 21.0719 149.157 21.3526 148.984 21.672C148.81 21.9885 148.61 22.4124 148.387 22.9468C147.957 23.9499 147.506 24.4515 147.037 24.4515C146.527 24.4515 145.903 23.929 145.165 22.8871C145.001 22.6632 144.756 22.3407 144.428 21.9198C144.099 21.5018 143.726 21.0301 143.308 20.5077C142.887 19.9852 142.448 19.4389 141.989 18.8657C141.529 18.2925 141.087 17.7461 140.669 17.2237C140.248 16.7012 139.875 16.2355 139.55 15.8265C139.221 15.4175 138.976 15.101 138.812 14.8741C138.096 13.9546 137.376 12.9664 136.648 11.9125C135.922 10.8587 135.25 9.89735 134.638 9.02859C134.023 8.15982 133.507 7.44331 133.089 6.88204C132.668 6.32077 132.417 6.07 132.337 6.12971C132.295 6.1715 132.265 6.29391 132.244 6.49692C132.223 6.70292 132.214 6.97758 132.214 7.32688C132.214 7.90009 132.229 8.5957 132.259 9.41371C132.289 10.2317 132.331 11.0557 132.381 11.8827C132.432 12.7097 132.477 13.4829 132.519 14.1994C132.561 14.9159 132.59 15.4473 132.611 15.7936C132.632 16.2444 132.647 16.7251 132.656 17.2356C132.665 17.7461 132.683 18.2447 132.701 18.7224C132.722 19.203 132.746 19.6538 132.779 20.0718C132.808 20.4927 132.844 20.8241 132.886 21.0689C132.949 21.5197 132.931 21.9496 132.841 22.3587C132.749 22.7677 132.611 23.1259 132.426 23.4334C132.241 23.7409 132.032 23.9857 131.796 24.1708C131.56 24.3559 131.34 24.4455 131.137 24.4455C130.913 24.4455 130.677 24.3888 130.432 24.2753C130.187 24.1619 129.96 23.9827 129.757 23.7379C129.551 23.4931 129.393 23.1797 129.283 22.8035C129.169 22.4243 129.124 21.9705 129.145 21.4391C129.166 20.9674 129.202 20.6092 129.253 20.3644C129.303 20.1196 129.354 19.8628 129.405 19.5971C129.456 19.3314 129.506 19 129.557 18.6C129.608 18.1999 129.644 17.6237 129.665 16.8654C129.706 16.0265 129.736 14.9786 129.757 13.7187C129.778 12.4619 129.787 11.1154 129.787 9.6824C129.787 8.76288 129.775 7.98965 129.757 7.36569C129.736 6.74173 129.695 6.21031 129.635 5.77145C129.572 5.33259 129.486 4.94747 129.375 4.62206C129.262 4.29366 129.124 3.96824 128.96 3.63984C128.163 2.18891 127.969 1.27834 128.378 0.908146C128.441 0.845452 128.635 0.791711 128.96 0.737973C129.289 0.68722 129.665 0.660348 130.095 0.660348C130.525 0.660348 130.963 0.696179 131.414 0.76783C131.865 0.83948 132.232 0.98875 132.519 1.21266C132.743 1.37686 132.928 1.60077 133.071 1.88738C133.113 1.98888 133.149 2.11726 133.179 2.26951C133.208 2.42177 133.229 2.58597 133.241 2.75912C133.25 2.93228 133.268 3.09649 133.286 3.24874C133.307 3.401 133.337 3.52042 133.379 3.60103C133.42 3.72343 133.674 4.10856 134.146 4.75043C134.618 5.39529 135.2 6.18345 135.895 7.11193C136.591 8.04339 137.352 9.0465 138.182 10.1183C139.012 11.193 139.803 12.2111 140.562 13.1724C141.317 14.1337 141.995 14.9667 142.586 15.6742C143.18 16.3788 143.589 16.8236 143.813 17.0087C143.977 17.1311 144.159 17.2804 144.365 17.4535C144.568 17.6267 144.753 17.7133 144.917 17.7133C145.061 17.7133 145.174 17.6357 145.255 17.4834C145.335 17.3311 145.377 17.0505 145.377 16.6385H145.407V16.1788C145.407 16.0146 145.416 15.8205 145.437 15.5966C145.458 15.2503 145.467 14.901 145.467 14.5547V13.5127C145.467 12.4887 145.446 11.4737 145.404 10.4586C145.362 9.44655 145.311 8.51509 145.252 7.66722C145.189 6.81935 145.132 6.10284 145.082 5.52067C145.031 4.93851 144.995 4.56533 144.974 4.40113C144.911 4.07273 144.81 3.75328 144.667 3.43384C144.523 3.11738 144.386 2.81585 144.252 2.52925C144.117 2.24264 144.001 1.98291 143.899 1.74706C143.798 1.51121 143.765 1.31118 143.807 1.14997C143.929 0.782756 144.165 0.597656 144.511 0.597656C144.819 0.597656 145.228 0.720063 145.738 0.964871C146.249 1.20968 146.894 1.56793 147.673 2.03963C148.267 2.40684 148.679 2.71136 148.915 2.94422C149.151 3.18007 149.267 3.41891 149.267 3.66671C149.267 3.78911 149.24 3.90853 149.19 4.01899C149.139 4.13244 149.076 4.26081 149.004 4.40113C148.933 4.54443 148.846 4.7146 148.745 4.90866C148.643 5.10271 148.539 5.35349 148.437 5.66099C148.336 6.01029 148.264 6.46408 148.222 7.02535C148.181 7.5896 148.151 8.22849 148.13 8.94201C148.088 9.96603 148.037 10.9721 147.978 11.9633C147.915 12.9545 147.885 14.1158 147.885 15.4473C147.885 15.8354 147.891 16.2504 147.9 16.6893C147.909 17.1281 147.927 17.5849 147.945 18.0536H148.007C148.109 18.8716 148.264 19.3851 148.467 19.5881L148.476 19.6001Z" fill="#DADAC2"/>
</svg>
