<svg width="75" height="75" viewBox="0 0 75 75" fill="none" xmlns="http://www.w3.org/2000/svg">
<path d="M37.6269 74.6269C58.2345 74.6269 74.9403 57.9211 74.9403 37.3134C74.9403 16.7058 58.2345 0 37.6269 0C17.0193 0 0.313477 16.7058 0.313477 37.3134C0.313477 57.9211 17.0193 74.6269 37.6269 74.6269Z" fill="#DADAC2"/>
<path d="M60.7233 50.7671C61.1472 52.5134 61.5741 54.2566 61.992 56.0029C62.3771 57.6178 62.9383 59.0955 64.2338 60.2775C65.383 61.3283 65.1532 62.2865 63.7621 62.982C62.6248 63.5522 61.3651 63.7611 60.1293 63.8895C54.8696 64.4358 52.4338 64.5313 47.2219 63.4596C42.9383 62.579 40.5353 59.6298 40.5233 55.2656C40.5084 49.7522 40.5054 44.2387 40.5293 38.7253C40.5353 37.3611 40.5681 36.0268 39.6935 34.8507C39.5204 34.6178 39.2427 34.2716 39.5054 33.9253C39.7741 33.5731 40.1771 33.7223 40.4248 33.8984C41.7233 34.8238 42.992 34.3074 44.2816 33.9044C45.8487 33.4178 47.4189 32.9462 48.995 32.4865C49.3681 32.379 49.8905 32.3701 49.998 32.0029C50.4487 30.4805 50.9293 28.9522 51.1532 27.388C51.2666 26.5999 50.395 26.8238 49.9323 26.9372C48.0129 27.4119 46.0487 27.7731 44.2427 28.594C43.3353 29.0059 42.9084 28.6984 42.4816 27.997C41.9174 27.0686 41.6816 26.1283 41.7532 24.991C41.992 21.2775 42.0786 17.5552 42.2308 13.8358C42.2636 13.0447 41.8815 12.4567 41.383 11.9044C41.1502 11.6447 40.989 11.3223 41.1412 10.9731C41.3233 10.5462 41.7233 10.7074 42.0308 10.7492C43.0995 10.8955 44.0935 11.2268 44.9233 11.9671C45.6905 12.6477 46.1472 13.3999 45.9771 14.4984C45.801 15.6417 45.7741 16.8089 45.6607 17.9641C45.583 18.7343 45.8427 19.1074 46.6248 18.7761C48.186 18.1164 50.0159 18.0716 51.183 16.4835C51.7024 15.7761 52.7442 16.197 53.5144 16.3283C54.3562 16.4716 55.6577 16.3164 55.7532 17.4686C55.8547 18.7134 54.5353 18.597 53.7114 18.8059C51.3741 19.4029 49.0278 19.9701 46.6726 20.4865C45.7502 20.6895 45.2338 21.0387 45.2965 22.0984C45.3502 23.0089 45.2099 23.9313 45.1323 24.8447C45.0517 25.797 45.4517 26.0298 46.3442 25.8029C48.6338 25.2238 50.992 24.8716 53.0875 23.6865C53.401 23.5104 53.6875 23.3731 54.0338 23.5313C55.0905 24.0119 56.1502 24.4955 56.8965 25.4387C57.0905 25.6865 57.392 25.9313 57.0517 26.3104C54.9532 28.6626 54.0069 31.6507 52.589 34.382C52.5233 34.5104 52.4607 34.6417 52.386 34.7671C51.6517 35.982 51.1592 36.1193 50.1413 35.1522C49.4905 34.5343 48.8995 34.4089 48.0786 34.6686C46.9323 35.0298 45.7502 35.2805 44.592 35.6029C44.2905 35.6865 43.7353 35.8447 43.989 36.2029C44.8457 37.4089 44.1621 38.6537 44.198 39.8656C44.2219 40.6626 44.5114 40.7731 45.1532 40.5761C46.792 40.0686 48.583 40.0268 49.9741 38.791C50.589 38.2447 52.9054 39.0119 53.1233 39.7761C53.3353 40.5193 52.7502 40.6865 52.2278 40.7999C50.0129 41.2835 47.795 41.7432 45.5771 42.2178C45.0248 42.3372 44.2069 42.2268 44.0457 42.8119C43.795 43.7223 43.8069 44.7164 43.795 45.6746C43.789 46.0268 44.2039 46.0477 44.4875 45.9761C46.2935 45.5253 48.2338 45.5343 49.795 44.2656C50.4607 43.7253 52.983 44.388 53.3293 45.1552C53.6875 45.9552 53.0756 46.194 52.4816 46.2895C50.5801 46.6029 48.6696 46.8716 46.7651 47.1552C46.0487 47.2626 45.3233 47.4835 44.6159 47.4328C43.6248 47.3641 43.3532 47.7731 43.3442 48.6686C43.3144 52.3193 42.8427 51.6089 46.1532 51.2089C47.8368 51.0059 49.6218 50.9552 51.0427 49.6686C51.6218 49.1432 53.9353 50.0208 54.2666 50.7462C54.5383 51.3402 54.2039 51.6089 53.6935 51.8387C52.7353 52.2716 51.6875 52.2089 50.7024 52.2835C48.4427 52.4566 46.2219 53.0865 43.9383 52.9164C43.386 52.8746 43.2517 53.1223 43.2547 53.5731C43.2666 54.7343 43.2368 55.8955 43.3144 57.0507C43.383 58.0298 43.992 58.7372 44.7681 59.2865C45.3263 59.6805 45.9472 59.982 46.6189 60.0895C50.792 60.7492 52.1592 60.8955 56.3353 60.1343C57.8965 59.8507 58.8607 58.8507 59.1651 57.2208C59.5651 55.0686 60.0457 52.9283 60.4905 50.782C60.5681 50.7731 60.6457 50.7641 60.7233 50.7552V50.7671Z" fill="#A51C2C"/>
<path d="M26.1078 57.1338C27.1467 57.2084 28.1526 57.3338 29.1616 57.3427C30.6213 57.3577 31.1317 56.9009 31.1884 55.489C31.287 53.0741 31.3078 50.6592 31.3855 48.2412C31.4153 47.3278 31.1198 47.1189 30.2989 47.5696C28.9884 48.289 27.6541 48.9696 26.3228 49.6502C25.9407 49.8472 25.5108 50.1577 25.1317 50.1218C23.681 49.9786 23.5019 50.7427 23.5078 51.9398C23.5198 54.1606 23.4213 56.3845 23.3019 58.6054C23.2511 59.5368 23.3467 60.7726 22.2004 61.0442C20.9347 61.3457 20.7496 60.0233 20.3138 59.2353C19.4153 57.6203 19.3258 56.0233 19.7735 54.1248C20.7556 49.9815 20.687 45.686 20.7556 41.4412C20.7855 39.5457 21.2899 37.5786 20.3228 35.7368C20.072 35.2592 20.3258 35.0114 20.8422 35.0263C21.084 35.0323 21.3287 35.0263 21.5646 35.0711C25.1467 35.7099 28.4123 34.5935 31.6392 33.2651C32.4064 32.9487 35.3108 34.1696 35.4899 34.9398C35.5287 35.1039 35.481 35.3427 35.3825 35.4771C34.6571 36.4592 34.8093 37.5935 34.8093 38.695C34.8034 44.9786 34.8004 51.2621 34.8093 57.5457C34.8093 59.5756 34.2034 61.4472 33.3467 63.2472C33.069 63.8323 32.5496 64.5069 32.0302 63.486C30.7526 60.9726 28.672 59.292 26.4123 57.7636C26.2601 57.6621 26.075 57.5696 26.1108 57.1308L26.1078 57.1338ZM31.3884 41.0084H31.3735C31.3735 39.7039 31.4213 38.3965 31.3586 37.098C31.3019 35.9487 30.7407 35.5547 29.6601 35.7905C27.9168 36.1696 26.1855 36.5995 24.4362 36.9368C23.7825 37.0621 23.5287 37.3368 23.5616 37.9845C23.7317 41.3457 22.5108 42.5606 27.1884 40.4144C28.1496 39.9726 28.9825 40.4412 29.7198 40.9995C30.1855 41.3547 29.8899 41.7308 29.469 41.8353C28.678 42.0353 27.8661 42.1696 27.0541 42.2741C24.7258 42.5746 23.5626 43.8711 23.5646 46.1636C23.5646 46.5009 23.5944 46.8412 23.5646 47.1786C23.481 48.095 23.9377 48.2771 24.7019 48.0383C25.8511 47.68 27.0123 47.3457 28.1437 46.9308C31.3974 45.7398 31.3944 45.7278 31.3944 42.3099C31.3944 41.8741 31.3944 41.4412 31.3944 41.0054L31.3884 41.0084Z" fill="#A51C2C"/>
<path d="M15.8005 20.6862C18.5945 20.0146 21.0094 19.4295 23.4273 18.8534C26.6841 18.0773 26.6662 18.0862 26.1617 14.8385C25.9617 13.5579 25.9199 12.2773 24.8303 11.2982C24.3109 10.8295 24.4333 10.331 25.293 10.337C26.2691 10.3429 27.2094 10.5041 28.1079 10.9131C29.9885 11.7668 30.296 12.325 29.9378 14.328C29.9139 14.4713 29.8363 14.6056 29.8273 14.7459C29.7617 15.5847 29.1975 16.7967 29.8602 17.1608C30.5945 17.5638 31.7199 17.0235 32.5408 16.4832C33.1169 16.1041 33.4781 15.3788 34.3766 15.6146C35.5856 15.931 36.8781 16.0265 37.8662 16.8952C38.6721 17.6026 38.5348 18.2982 37.4811 18.5161C36.2124 18.7788 34.905 18.8444 33.6154 19.0146C33.305 19.0564 32.8781 18.9101 32.7378 19.325C32.6303 19.6474 32.9438 19.8474 33.1497 20.0265C34.287 21.0235 34.3467 22.0355 33.4632 23.2922C32.6632 24.4325 32.0841 25.725 31.4005 26.9459C30.9766 27.7041 31.2781 27.934 32.0124 27.7519C33.2691 27.4414 34.6064 27.2982 35.5736 26.2922C35.9587 25.8922 36.3378 25.8534 36.8691 25.9728C38.0035 26.2265 39.1318 26.4832 40.1467 27.0594C40.5557 27.2922 41.0423 27.6026 40.9378 28.1608C40.8512 28.6146 40.3885 28.7668 39.9676 28.934C38.9079 29.3579 37.7706 29.2952 36.6841 29.3907C29.6273 30.0146 22.8035 31.722 16.0512 33.737C14.5438 34.1877 13.4423 33.8802 12.299 33.0683C12.0721 32.9071 11.7199 32.7967 11.7766 32.4534C11.8363 32.0743 12.2273 32.1638 12.49 32.1041C15.4064 31.4414 18.3259 30.7817 21.2453 30.128C23.4542 29.6325 25.6602 29.1101 27.8811 28.6773C28.7199 28.5131 29.1229 28.1161 29.305 27.3011C29.69 25.5608 30.1885 23.8474 30.5527 22.1041C30.9109 20.3758 30.105 19.5698 28.4035 19.9041C26.5587 20.2653 24.7288 20.6922 22.89 21.0713C22.0273 21.2474 21.9079 21.5788 22.6005 22.1549C22.8244 22.34 23.0154 22.5847 23.2662 22.7101C25.3229 23.731 25.2572 25.5877 25.1259 27.4474C25.0542 28.4594 24.5676 28.7041 23.6751 28.2146C22.8841 27.7817 22.3945 27.0504 21.9796 26.2773C21.3826 25.1638 20.9796 23.9758 20.6602 22.7608C20.4811 22.0832 20.1438 21.7131 19.4333 21.9907C17.9766 22.5579 17.1467 21.5549 15.8064 20.6922L15.8005 20.6862Z" fill="#A51C2C"/>
</svg>
