<svg width="68" height="65" viewBox="0 0 68 65" fill="none" xmlns="http://www.w3.org/2000/svg">
<path d="M36.1647 62.8831C53.5286 62.8831 67.6048 48.8069 67.6048 31.443C67.6048 14.0791 53.5286 0.00292969 36.1647 0.00292969C18.8008 0.00292969 4.72461 14.0791 4.72461 31.443C4.72461 48.8069 18.8008 62.8831 36.1647 62.8831Z" fill="#A51C2C"/>
<path d="M60.1168 51.3288C61.9869 39.1859 47.803 35.4405 42.6163 34.7375C37.4324 34.0318 23.9949 34.078 24.421 27.404C24.8499 20.7301 37.6061 20.3854 37.7988 20.3501C37.674 20.4424 33.725 23.4849 33.4671 26.3482C37.9481 23.664 42.9312 25.515 42.9312 25.515C42.9312 25.515 40.6351 26.1827 39.4381 28.3295C45.9058 27.3416 48.9538 28.354 49.35 29.5129C49.7436 30.6718 48.5358 31.6489 48.5358 31.6489C48.5358 31.6489 53.8446 31.9094 55.5762 27.9577C50.9649 29.5129 49.8413 27.214 48.9103 25.6969C47.9821 24.1797 46.0497 22.7738 42.4834 22.3965C52.1103 20.0515 54.0183 23.2786 51.4969 25.401C54.6317 26.3889 56.4365 24.2177 56.4365 24.2177C56.4365 24.2177 56.7568 25.401 56.1624 26.4894C59.5469 25.9194 61.596 24.044 61.3979 21.9975C61.2785 20.7545 59.6826 20.6025 57.8886 20.6161C59.1859 19.1043 59.7857 16.971 58.9226 15.101C57.8397 12.7669 55.1663 11.7844 52.8376 11.3067C51.6896 11.0814 50.5931 10.9892 49.483 10.6825C46.18 9.87095 43.1185 7.54497 43.2704 3.83752C42.771 6.91802 44.8989 9.58869 47.6021 10.8155C50.1344 12.1264 53.2312 12.0097 55.6712 13.4698C57.552 14.5229 58.5807 16.3929 57.6416 18.4312C57.2508 19.3323 56.5451 20.1221 55.72 20.6459C55.2885 20.6459 54.8786 20.6296 54.5068 20.5889C52.0125 20.3175 52.5798 19.0853 50.9758 18.5642C49.3717 18.0458 49.0732 19.4761 46.6576 18.6891C44.2367 17.8993 43.3736 14.911 43.3736 14.911C43.3736 14.911 48.1368 17.3809 50.6066 17.674C53.0765 17.9725 53.8174 15.6737 53.8174 15.6737C53.8174 15.6737 41.3516 17.0796 32.2431 0.192485C33.3993 0.0649227 34.5745 -0.00292969 35.7632 -0.00292969C53.128 -0.00292969 67.2034 14.0751 67.2034 31.4399C67.2034 38.9824 64.5462 45.906 60.1141 51.3261L60.1168 51.3288Z" fill="#DADAC2"/>
<path d="M36.6186 42.2172C36.2848 46.994 40.5459 48.4623 40.5459 48.4623C31.6192 47.5504 32.2679 42.1059 30.7507 41.2537C29.2308 40.4015 26.1585 42.7166 27.8792 49.871C19.7125 46.1608 23.8786 40.4775 21.9543 38.6265C20.03 36.7727 14.3521 37.9208 15.5491 45.4036C10.3651 40.2386 13.717 33.201 12.8268 32.0719C11.9393 30.9401 8.1043 32.2565 7.55062 38.6265C5.62361 29.7731 12.0804 26.4402 13.1932 24.0463C14.3033 21.6525 10.5524 21.7393 7.07022 23.3298C6.42427 23.6256 5.7756 23.9513 5.14593 24.2852C2.43183 25.7291 0.0895652 27.3412 0 27.4037C0.0922793 27.3738 2.10885 26.698 4.7931 26.0358C4.4864 27.7945 4.32898 29.5994 4.32898 31.445C4.32898 48.8098 18.4043 62.8851 35.7691 62.8851C42.8475 62.8851 49.3803 60.5455 54.6348 56.5965C55.487 60.5781 55.4354 64.3642 55.4354 64.3642C56.6432 60.4179 57.1779 57.1855 57.1127 54.5311C56.8848 44.8363 48.718 42.8903 36.6213 42.2199L36.6186 42.2172Z" fill="#DADAC2"/>
<path d="M8.83984 15.201C9.0244 15.0789 15.3618 10.9508 25.4745 11.423C28.6962 14.4601 33.3237 13.7734 33.3237 13.7734C33.3237 13.7734 26.1368 12.8886 22.2855 3.02832C16.6999 5.67999 12.0208 9.9357 8.83984 15.201Z" fill="#DADAC2"/>
<path d="M34.1919 8.51673C32.2242 4.93684 32.2459 0.195312 32.2459 0.195312C28.7176 0.588857 25.3629 1.56593 22.2852 3.03154C26.2884 7.37139 31.9528 8.48145 34.1919 8.51673Z" fill="#DADAC2"/>
<path d="M20.4973 17.5276C21.3251 16.6266 16.0951 14.2789 8.83756 15.2044C7.65422 17.1612 6.67986 19.262 5.94434 21.4712C6.06104 21.3708 8.31646 19.4954 11.9941 18.7029C15.7721 17.8886 19.6695 18.426 20.4973 17.5304V17.5276Z" fill="#DADAC2"/>
</svg>
