<svg width="24" height="28" viewBox="0 0 24 28" fill="none" xmlns="http://www.w3.org/2000/svg">
<path d="M7.39575 2.46676C7.05826 2.41466 7.04405 2.40755 7.20273 2.38387C7.50706 2.3365 8.22702 2.40163 8.72318 2.51886C9.88009 2.79477 10.9328 3.49934 12.0577 4.75098L12.3561 5.08254L12.7824 5.01505C14.5823 4.72493 16.4142 4.95584 17.9453 5.66277C18.3669 5.85697 19.0312 6.24419 19.1141 6.34484C19.1413 6.37563 19.1899 6.58049 19.2218 6.79837C19.3355 7.55267 19.2787 8.13054 19.0489 8.56275C18.9234 8.79721 18.9163 8.87063 19.0004 9.07193C19.0403 9.15508 19.1027 9.22536 19.1806 9.27476C19.2585 9.32417 19.3487 9.35072 19.4409 9.35139C19.8222 9.35139 20.2319 8.73564 20.4214 7.8795L20.4972 7.53965L20.6464 7.70898C21.4658 8.63735 22.1088 9.90321 22.2189 10.8032L22.2485 11.0388L22.11 10.8257C21.8731 10.4586 21.6363 10.2075 21.3308 10.005C20.7813 9.64151 20.1999 9.51836 18.6605 9.43665C17.2704 9.36324 16.4829 9.24482 15.7037 8.99023C14.3763 8.55801 13.7073 7.98134 12.13 5.91263C11.4301 4.99373 10.9967 4.48573 10.5669 4.0772C9.5876 3.14646 8.62607 2.65859 7.39575 2.46676Z" fill="#DADAC2"/>
<path d="M19.5116 5.21262C19.5472 4.59686 19.6301 4.1907 19.7982 3.82006C19.8645 3.67323 19.9273 3.55244 19.9368 3.55244C19.9262 3.63557 19.9043 3.71685 19.8716 3.79401C19.7497 4.15399 19.7295 4.6466 19.8136 5.21854C19.9202 5.9456 19.9817 6.04981 20.7491 6.8349C21.1102 7.20317 21.5294 7.66735 21.681 7.86748L21.9569 8.22983L21.681 7.9705C21.3435 7.65433 20.5667 7.03502 20.395 6.94739C20.2802 6.88819 20.2624 6.88937 20.1913 6.95924C20.1262 7.02555 20.112 7.12265 20.1037 7.58565C20.0895 8.30561 19.9912 8.7698 19.7532 9.23161C19.6253 9.48028 19.6052 9.42818 19.7212 9.14517C19.8077 8.93439 19.816 8.84203 19.816 8.14457C19.816 6.74254 19.649 6.40624 18.6721 5.82837C18.3781 5.6578 18.0762 5.50132 17.7674 5.35945C17.6148 5.29825 17.4668 5.22622 17.3245 5.14394C17.3518 5.1167 18.3038 5.39379 18.6863 5.54181C19.2571 5.76088 19.3506 5.7893 19.4205 5.76206C19.4666 5.7443 19.4891 5.60931 19.5116 5.21262ZM8.13554 7.61052C7.44992 6.66675 7.02599 5.21854 7.11717 4.13623L7.14559 3.80111L7.3019 3.82953C7.59557 3.88282 8.1012 4.0711 8.33803 4.21557C8.98694 4.60989 9.26877 5.12973 9.55415 6.46308C9.63822 6.85385 9.74835 7.29553 9.79926 7.44592C9.87979 7.6863 10.1877 8.24877 10.4387 8.61467C10.6187 8.87755 10.4979 9.00189 10.1 8.96636C9.49139 8.91071 8.66722 8.34232 8.13554 7.61052ZM18.6804 14.6384C15.4749 13.3477 14.3464 12.2275 14.3464 10.3376C14.3464 10.0593 14.3559 9.83198 14.3665 9.83198C14.3784 9.83198 14.5027 9.92316 14.6424 10.0357C15.2925 10.5567 16.0208 10.7793 18.035 11.073C19.2203 11.247 19.8882 11.3868 20.504 11.5904C22.4602 12.2393 23.6704 13.5561 23.9593 15.3489C24.0422 15.8699 23.9936 16.8469 23.8575 17.362C23.7509 17.7693 23.4229 18.5023 23.3364 18.5307C23.3128 18.5378 23.2891 18.4467 23.282 18.3199C23.2488 17.6474 22.909 16.9913 22.337 16.4999C21.6869 15.9422 20.8154 15.4969 18.6804 14.6384ZM16.4305 15.1737C16.3926 14.9449 16.3408 14.7187 16.2754 14.4963L16.1925 14.2524L16.3452 14.4229C16.5548 14.6597 16.7218 14.9605 16.8615 15.3631C16.9693 15.6698 16.9811 15.761 16.9799 16.2595C16.9799 16.7498 16.9669 16.8516 16.8674 17.1287C16.7291 17.535 16.4976 17.9032 16.1913 18.2039C15.6051 18.8007 14.8532 19.1299 13.7662 19.2673C13.5767 19.2909 13.0273 19.3312 12.5429 19.3561C11.3233 19.42 10.5216 19.5503 9.80045 19.8037C9.73542 19.8328 9.66557 19.8497 9.59441 19.8534C9.56599 19.8238 10.0562 19.5313 10.4624 19.3359C11.0343 19.06 11.6027 18.9097 12.878 18.6977C13.508 18.5923 14.1593 18.4656 14.3239 18.4147C15.8846 17.9363 16.6875 16.7024 16.4305 15.1737Z" fill="#DADAC2"/>
<path d="M17.1299 18.1778C16.7036 17.2625 16.6065 16.3779 16.8398 15.5538C16.8646 15.4661 16.9049 15.3939 16.9286 15.3939C17.0087 15.4229 17.0841 15.4636 17.1524 15.5147C17.3489 15.6473 17.7421 15.8699 18.7901 16.4407C20.0985 17.1547 20.8445 17.7077 21.3525 18.3377C21.7966 18.8907 22.0713 19.5207 22.2039 20.288C22.2785 20.7226 22.2347 21.7682 22.1234 22.2063C21.7717 23.587 20.9535 24.6717 19.7883 25.304C19.6783 25.3677 19.5644 25.4242 19.4473 25.4734C19.4307 25.4734 19.4923 25.3159 19.5858 25.1217C19.9766 24.3023 20.0228 23.5041 19.7255 22.616C19.5444 22.0725 19.1737 21.4082 18.4265 20.288C17.5574 18.9854 17.3442 18.6373 17.1299 18.1778ZM5.09065 23.1169C6.28072 22.1128 7.75972 21.3999 9.10846 21.1808C9.68869 21.0861 10.6573 21.124 11.1949 21.2614C12.057 21.4816 12.8291 21.9766 13.2305 22.5651C13.6212 23.1406 13.7906 23.6427 13.9647 24.7582C14.0357 25.1987 14.1103 25.6403 14.1328 25.741C14.2631 26.3189 14.52 26.7819 14.8374 27.014C15.3406 27.3822 16.2086 27.4047 17.0612 27.0732C17.1503 27.0323 17.2442 27.0028 17.3407 26.9855C17.3714 27.0163 16.9428 27.3041 16.6396 27.4556C16.2819 27.6471 15.8813 27.7441 15.4756 27.7375C14.6941 27.7375 14.0452 27.3408 13.504 26.5296C13.3974 26.3698 13.1582 25.8926 12.9712 25.4675C12.4004 24.1649 12.1186 23.767 11.4554 23.3324C10.8764 22.9535 10.1316 22.886 9.57146 23.1607C8.83492 23.5219 8.63007 24.4633 9.15701 25.0589C9.36661 25.2958 9.75737 25.5006 10.0771 25.5397C10.2166 25.5582 10.3584 25.5465 10.4929 25.5054C10.6275 25.4644 10.7517 25.3949 10.8571 25.3018C10.9625 25.2086 11.0467 25.0939 11.104 24.9654C11.1612 24.8368 11.1902 24.6975 11.189 24.5569C11.189 24.1637 11.0374 23.9411 10.6585 23.7694C10.141 23.5361 9.58449 23.8085 9.58686 24.2952C9.58804 24.5024 9.67804 24.6326 9.88645 24.7274C10.0203 24.7866 10.0226 24.7925 9.91368 24.77C9.43884 24.6705 9.32753 24.0986 9.71001 23.7185C10.1683 23.2614 11.1168 23.4627 11.4424 24.0856C11.5798 24.3473 11.5952 24.8695 11.4756 25.1844C11.2091 25.889 10.43 26.2585 9.64014 26.0572C9.10254 25.9198 8.88347 25.7718 8.23575 25.1039C7.10962 23.9435 6.67267 23.7185 5.04802 23.4651L4.73659 23.4165L5.09065 23.1169Z" fill="#DADAC2"/>
<path fill-rule="evenodd" clip-rule="evenodd" d="M0 0.1942L0.113678 0.332745C4.5045 5.70877 6.77332 8.49863 6.91779 8.69756C7.15462 9.02676 7.06581 9.32161 6.65846 9.5537C6.43229 9.68277 5.96573 9.81303 5.73364 9.81303C5.46958 9.81303 5.17236 9.68633 4.95566 9.48147C4.8029 9.33582 4.18596 8.41455 2.76143 6.20375C2.09435 5.15885 1.41857 4.11953 0.734171 3.08589C0.676148 3.03142 0.677332 3.0326 2.65012 6.56254C3.88874 8.77927 4.30793 9.56199 4.30793 9.66738C4.30793 9.88053 4.24872 9.99184 3.98584 10.2855C3.54771 10.7746 3.35232 11.324 3.21022 12.4608C3.05155 13.7361 2.60631 14.6361 1.37006 16.1766C0.647729 17.079 0.529314 17.2447 0.345771 17.6083C0.116046 18.0654 0.0532864 18.3223 0.0272351 18.9002C-2.79382e-07 19.5112 0.0532867 19.9067 0.240382 20.4905C0.403794 21.002 0.574311 21.3407 1.01008 22.0157C1.38664 22.5995 1.60334 23.0329 1.60334 23.2022C1.60334 23.3372 1.62939 23.3372 2.21317 23.2057C3.60928 22.8908 4.74251 22.3354 5.38077 21.6557C5.77509 21.2353 5.86745 21.0032 5.871 20.4265C5.87219 20.05 5.85916 19.9706 5.75732 19.7539C5.59154 19.4011 5.28959 19.1074 4.6241 18.6527C3.75138 18.0559 3.37956 17.5751 3.27654 16.9155C3.19128 16.3744 3.28956 15.9919 3.77269 14.9806C4.27122 13.9339 4.39556 13.4886 4.47963 12.4335C4.53292 11.7515 4.60752 11.4827 4.80409 11.2672C5.00776 11.0422 5.19249 10.9652 5.69812 10.8965C6.52228 10.784 7.04686 10.5709 7.47789 10.1742C7.85208 9.82842 8.00839 9.49568 8.03207 8.99597L8.05102 8.61704L7.84142 8.37311C7.54065 8.0226 5.05276 5.27775 0.376559 0.136177L0.251039 0L0 0.1942ZM2.02963 19.5929C2.11224 19.4466 2.13691 19.2747 2.09875 19.1111C2.06059 18.9475 1.96239 18.8042 1.82359 18.7095C1.5536 18.5295 1.13323 18.6148 1.13323 18.8493C1.13323 18.9203 1.17231 18.9724 1.26112 19.0186C1.4115 19.0956 1.42216 19.1832 1.30493 19.3596C1.18533 19.5396 1.1948 19.6983 1.33217 19.8061C1.55242 19.9789 1.86385 19.883 2.02963 19.5929ZM8.57086 11.0955C8.18364 11.2139 7.80827 11.6248 7.69104 12.0546C7.61999 12.3163 7.66025 12.777 7.76682 12.919C7.93852 13.1488 8.10549 13.2092 8.55546 13.2056C9.43647 13.1997 10.2014 12.8219 10.2914 12.3495C10.3648 11.9623 10.0274 11.4258 9.56436 11.189C9.32516 11.0682 8.81716 11.0197 8.57086 11.0955ZM9.60107 11.9007C9.73724 11.7077 9.67685 11.4981 9.44713 11.3583C9.00663 11.0895 8.34114 11.311 8.34114 11.7278C8.34114 11.9338 8.68809 12.16 9.00544 12.16C9.21859 12.16 9.50752 12.0333 9.60107 11.9007Z" fill="#DADAC2"/>
</svg>
